<mxfile host="app.diagrams.net" modified="2020-11-06T06:04:24.856Z" agent="5.0 (Windows NT 10.0; Win64; x64) AppleWebKit/537.36 (KHTML, like Gecko) Chrome/86.0.4240.111 Safari/537.36" etag="mQxN0ZHzMrMsIe4wvKNZ" version="13.8.9-1" type="github">
  <diagram id="g0biR_JautmCEhP8nTA4" name="Page-1">
    <mxGraphModel dx="782" dy="1608" grid="1" gridSize="10" guides="1" tooltips="1" connect="1" arrows="1" fold="1" page="1" pageScale="1" pageWidth="850" pageHeight="1100" math="0" shadow="0">
      <root>
        <mxCell id="0" />
        <mxCell id="1" parent="0" />
        <mxCell id="zVxx0Tfb6Su1z6snV0Rm-1" value="Region" style="points=[[0,0],[0.25,0],[0.5,0],[0.75,0],[1,0],[1,0.25],[1,0.5],[1,0.75],[1,1],[0.75,1],[0.5,1],[0.25,1],[0,1],[0,0.75],[0,0.5],[0,0.25]];outlineConnect=0;gradientColor=none;html=1;whiteSpace=wrap;fontSize=12;fontStyle=0;shape=mxgraph.aws4.group;grIcon=mxgraph.aws4.group_region;strokeColor=#147EBA;fillColor=none;verticalAlign=top;align=left;spacingLeft=30;fontColor=#147EBA;dashed=1;" vertex="1" parent="1">
          <mxGeometry x="130.25" y="90" width="709.75" height="290" as="geometry" />
        </mxCell>
        <mxCell id="zVxx0Tfb6Su1z6snV0Rm-33" value="VPC" style="points=[[0,0],[0.25,0],[0.5,0],[0.75,0],[1,0],[1,0.25],[1,0.5],[1,0.75],[1,1],[0.75,1],[0.5,1],[0.25,1],[0,1],[0,0.75],[0,0.5],[0,0.25]];outlineConnect=0;gradientColor=none;html=1;whiteSpace=wrap;fontSize=12;fontStyle=0;shape=mxgraph.aws4.group;grIcon=mxgraph.aws4.group_vpc;strokeColor=#248814;fillColor=none;verticalAlign=top;align=left;spacingLeft=30;fontColor=#AAB7B8;dashed=0;" vertex="1" parent="1">
          <mxGeometry x="158.25" y="120" width="661.75" height="230" as="geometry" />
        </mxCell>
        <mxCell id="zVxx0Tfb6Su1z6snV0Rm-4" value="Availability Zone" style="fillColor=none;strokeColor=#147EBA;dashed=1;verticalAlign=top;fontStyle=0;fontColor=#147EBA;" vertex="1" parent="1">
          <mxGeometry x="570" y="150" width="230" height="190" as="geometry" />
        </mxCell>
        <mxCell id="zVxx0Tfb6Su1z6snV0Rm-28" value="Public subnet" style="points=[[0,0],[0.25,0],[0.5,0],[0.75,0],[1,0],[1,0.25],[1,0.5],[1,0.75],[1,1],[0.75,1],[0.5,1],[0.25,1],[0,1],[0,0.75],[0,0.5],[0,0.25]];outlineConnect=0;gradientColor=none;html=1;whiteSpace=wrap;fontSize=12;fontStyle=0;shape=mxgraph.aws4.group;grIcon=mxgraph.aws4.group_security_group;grStroke=0;strokeColor=#248814;fillColor=#E9F3E6;verticalAlign=top;align=left;spacingLeft=30;fontColor=#248814;dashed=0;" vertex="1" parent="1">
          <mxGeometry x="582" y="180" width="210" height="130" as="geometry" />
        </mxCell>
        <mxCell id="zVxx0Tfb6Su1z6snV0Rm-35" value="Security group" style="fillColor=none;strokeColor=#DD3522;verticalAlign=top;fontStyle=0;fontColor=#DD3522;" vertex="1" parent="1">
          <mxGeometry x="587" y="210" width="200" height="90" as="geometry" />
        </mxCell>
        <mxCell id="zVxx0Tfb6Su1z6snV0Rm-3" value="Public subnet" style="points=[[0,0],[0.25,0],[0.5,0],[0.75,0],[1,0],[1,0.25],[1,0.5],[1,0.75],[1,1],[0.75,1],[0.5,1],[0.25,1],[0,1],[0,0.75],[0,0.5],[0,0.25]];outlineConnect=0;gradientColor=none;html=1;whiteSpace=wrap;fontSize=12;fontStyle=0;shape=mxgraph.aws4.group;grIcon=mxgraph.aws4.group_security_group;grStroke=0;strokeColor=#248814;fillColor=#E9F3E6;verticalAlign=top;align=left;spacingLeft=30;fontColor=#248814;dashed=0;" vertex="1" parent="1">
          <mxGeometry x="210" y="180" width="210" height="130" as="geometry" />
        </mxCell>
        <mxCell id="zVxx0Tfb6Su1z6snV0Rm-34" value="Security group" style="fillColor=none;strokeColor=#DD3522;verticalAlign=top;fontStyle=0;fontColor=#DD3522;" vertex="1" parent="1">
          <mxGeometry x="217.5" y="210" width="200" height="90" as="geometry" />
        </mxCell>
        <mxCell id="zVxx0Tfb6Su1z6snV0Rm-2" value="Availability Zone" style="fillColor=none;strokeColor=#147EBA;dashed=1;verticalAlign=top;fontStyle=0;fontColor=#147EBA;" vertex="1" parent="1">
          <mxGeometry x="200" y="150" width="230" height="190" as="geometry" />
        </mxCell>
        <mxCell id="zVxx0Tfb6Su1z6snV0Rm-7" value="AZ-A" style="text;html=1;strokeColor=none;fillColor=none;align=center;verticalAlign=middle;whiteSpace=wrap;rounded=0;dashed=1;dashPattern=1 1;fontStyle=1" vertex="1" parent="1">
          <mxGeometry x="365" y="130" width="40" height="20" as="geometry" />
        </mxCell>
        <mxCell id="zVxx0Tfb6Su1z6snV0Rm-8" value="&lt;h1&gt;AWS Power Hour Homework Week 4&lt;/h1&gt;&lt;div style=&quot;text-align: center&quot;&gt;&lt;font style=&quot;font-size: 14px&quot;&gt;From curious_giraffe&lt;/font&gt;&lt;/div&gt;" style="text;html=1;strokeColor=none;fillColor=none;spacing=5;spacingTop=-20;whiteSpace=wrap;overflow=hidden;rounded=0;dashed=1;dashPattern=1 1;" vertex="1" parent="1">
          <mxGeometry x="227" y="-110" width="440" height="80" as="geometry" />
        </mxCell>
        <mxCell id="zVxx0Tfb6Su1z6snV0Rm-10" value="EC2" style="text;html=1;strokeColor=none;fillColor=none;align=center;verticalAlign=middle;whiteSpace=wrap;rounded=0;dashed=1;dashPattern=1 1;" vertex="1" parent="1">
          <mxGeometry x="297.5" y="270" width="40" height="20" as="geometry" />
        </mxCell>
        <mxCell id="zVxx0Tfb6Su1z6snV0Rm-11" value="AZ-B" style="text;html=1;strokeColor=none;fillColor=none;align=center;verticalAlign=middle;whiteSpace=wrap;rounded=0;dashed=1;dashPattern=1 1;fontStyle=1" vertex="1" parent="1">
          <mxGeometry x="758.25" y="130" width="40" height="20" as="geometry" />
        </mxCell>
        <mxCell id="zVxx0Tfb6Su1z6snV0Rm-14" value="" style="outlineConnect=0;dashed=0;verticalLabelPosition=bottom;verticalAlign=top;align=center;html=1;shape=mxgraph.aws3.internet_gateway;fillColor=#F58536;gradientColor=none;dashPattern=1 1;" vertex="1" parent="1">
          <mxGeometry x="435" y="67" width="45.25" height="46" as="geometry" />
        </mxCell>
        <mxCell id="zVxx0Tfb6Su1z6snV0Rm-15" value="Internet GW" style="text;html=1;strokeColor=none;fillColor=none;align=center;verticalAlign=middle;whiteSpace=wrap;rounded=0;dashed=1;dashPattern=1 1;" vertex="1" parent="1">
          <mxGeometry x="470" y="47" width="40" height="20" as="geometry" />
        </mxCell>
        <mxCell id="zVxx0Tfb6Su1z6snV0Rm-16" value="" style="ellipse;shape=cloud;whiteSpace=wrap;html=1;dashed=1;dashPattern=1 1;fillColor=none;" vertex="1" parent="1">
          <mxGeometry x="310" y="7" width="70" height="40" as="geometry" />
        </mxCell>
        <mxCell id="zVxx0Tfb6Su1z6snV0Rm-17" value="Internet" style="text;html=1;strokeColor=none;fillColor=none;align=center;verticalAlign=middle;whiteSpace=wrap;rounded=0;dashed=1;dashPattern=1 1;" vertex="1" parent="1">
          <mxGeometry x="351.25" y="-10" width="40" height="20" as="geometry" />
        </mxCell>
        <mxCell id="zVxx0Tfb6Su1z6snV0Rm-18" value="" style="endArrow=classic;html=1;" edge="1" parent="1" target="zVxx0Tfb6Su1z6snV0Rm-14">
          <mxGeometry width="50" height="50" relative="1" as="geometry">
            <mxPoint x="376" y="30" as="sourcePoint" />
            <mxPoint x="426" y="-20" as="targetPoint" />
          </mxGeometry>
        </mxCell>
        <mxCell id="zVxx0Tfb6Su1z6snV0Rm-20" value="" style="endArrow=classic;html=1;entryX=0;entryY=0.575;entryDx=0;entryDy=0;entryPerimeter=0;" edge="1" parent="1" target="zVxx0Tfb6Su1z6snV0Rm-16">
          <mxGeometry width="50" height="50" relative="1" as="geometry">
            <mxPoint x="156" y="30" as="sourcePoint" />
            <mxPoint x="206" y="-20" as="targetPoint" />
          </mxGeometry>
        </mxCell>
        <mxCell id="zVxx0Tfb6Su1z6snV0Rm-30" value="EC2" style="text;html=1;strokeColor=none;fillColor=none;align=center;verticalAlign=middle;whiteSpace=wrap;rounded=0;dashed=1;dashPattern=1 1;" vertex="1" parent="1">
          <mxGeometry x="667" y="270" width="40" height="20" as="geometry" />
        </mxCell>
        <mxCell id="zVxx0Tfb6Su1z6snV0Rm-38" value="Actor" style="shape=umlActor;verticalLabelPosition=bottom;verticalAlign=top;html=1;outlineConnect=0;" vertex="1" parent="1">
          <mxGeometry x="111" y="-10" width="40" height="70" as="geometry" />
        </mxCell>
        <mxCell id="zVxx0Tfb6Su1z6snV0Rm-39" value="" style="outlineConnect=0;fontColor=#232F3E;gradientColor=#F54749;gradientDirection=north;fillColor=#C7131F;strokeColor=#ffffff;dashed=0;verticalLabelPosition=bottom;verticalAlign=top;align=center;html=1;fontSize=12;fontStyle=0;aspect=fixed;shape=mxgraph.aws4.resourceIcon;resIcon=mxgraph.aws4.waf;" vertex="1" parent="1">
          <mxGeometry x="437.32" y="140" width="40" height="40" as="geometry" />
        </mxCell>
        <mxCell id="zVxx0Tfb6Su1z6snV0Rm-40" value="WAF" style="text;html=1;strokeColor=none;fillColor=none;align=center;verticalAlign=middle;whiteSpace=wrap;rounded=0;" vertex="1" parent="1">
          <mxGeometry x="437.94" y="180" width="40" height="20" as="geometry" />
        </mxCell>
        <mxCell id="zVxx0Tfb6Su1z6snV0Rm-41" value="" style="outlineConnect=0;fontColor=#232F3E;gradientColor=#F54749;gradientDirection=north;fillColor=#C7131F;strokeColor=#ffffff;dashed=0;verticalLabelPosition=bottom;verticalAlign=top;align=center;html=1;fontSize=12;fontStyle=0;aspect=fixed;shape=mxgraph.aws4.resourceIcon;resIcon=mxgraph.aws4.shield;" vertex="1" parent="1">
          <mxGeometry x="520" y="140" width="40" height="40" as="geometry" />
        </mxCell>
        <mxCell id="zVxx0Tfb6Su1z6snV0Rm-42" value="Shield" style="text;html=1;strokeColor=none;fillColor=none;align=center;verticalAlign=middle;whiteSpace=wrap;rounded=0;" vertex="1" parent="1">
          <mxGeometry x="520" y="180" width="40" height="20" as="geometry" />
        </mxCell>
        <mxCell id="zVxx0Tfb6Su1z6snV0Rm-43" value="ELB" style="text;html=1;strokeColor=none;fillColor=none;align=center;verticalAlign=middle;whiteSpace=wrap;rounded=0;dashed=1;dashPattern=1 1;" vertex="1" parent="1">
          <mxGeometry x="480" y="245" width="40" height="20" as="geometry" />
        </mxCell>
        <mxCell id="zVxx0Tfb6Su1z6snV0Rm-44" value="" style="outlineConnect=0;fontColor=#232F3E;gradientColor=#F78E04;gradientDirection=north;fillColor=#D05C17;strokeColor=#ffffff;dashed=0;verticalLabelPosition=bottom;verticalAlign=top;align=center;html=1;fontSize=12;fontStyle=0;aspect=fixed;shape=mxgraph.aws4.resourceIcon;resIcon=mxgraph.aws4.ec2;" vertex="1" parent="1">
          <mxGeometry x="302.5" y="240" width="30" height="30" as="geometry" />
        </mxCell>
        <mxCell id="zVxx0Tfb6Su1z6snV0Rm-45" value="" style="outlineConnect=0;fontColor=#232F3E;gradientColor=#F78E04;gradientDirection=north;fillColor=#D05C17;strokeColor=#ffffff;dashed=0;verticalLabelPosition=bottom;verticalAlign=top;align=center;html=1;fontSize=12;fontStyle=0;aspect=fixed;shape=mxgraph.aws4.resourceIcon;resIcon=mxgraph.aws4.ec2;" vertex="1" parent="1">
          <mxGeometry x="672" y="240" width="30" height="30" as="geometry" />
        </mxCell>
        <mxCell id="zVxx0Tfb6Su1z6snV0Rm-46" value="" style="outlineConnect=0;fontColor=#232F3E;gradientColor=#F78E04;gradientDirection=north;fillColor=#D05C17;strokeColor=#ffffff;dashed=0;verticalLabelPosition=bottom;verticalAlign=top;align=center;html=1;fontSize=12;fontStyle=0;aspect=fixed;shape=mxgraph.aws4.resourceIcon;resIcon=mxgraph.aws4.elastic_load_balancing;" vertex="1" parent="1">
          <mxGeometry x="479.75" y="205" width="40" height="40" as="geometry" />
        </mxCell>
      </root>
    </mxGraphModel>
  </diagram>
</mxfile>
